<svg xmlns="http://www.w3.org/2000/svg" role="graphics-symbol" viewBox="0 0 16 16" class="aiExplainThis" style="width: 16px; height: 16px; display: block; fill: rgb(167, 130, 195); flex-shrink: 0;"><path d="M7.61035 10.7373C8.19824 10.7373 8.55371 10.4229 8.64941 9.89648C8.64941 9.84863 8.66309 9.78027 8.66309 9.73242C8.74512 9.01465 9.0459 8.69336 10.1807 7.98926C11.4248 7.20312 12.0947 6.31445 12.0947 5.01562C12.0947 2.89648 10.3652 1.61816 7.95898 1.61816C6.1748 1.61816 4.73926 2.35645 4.14453 3.55957C3.98047 3.88086 3.90527 4.21582 3.90527 4.53027C3.89844 5.15234 4.30176 5.56934 4.96484 5.56934C5.46387 5.56934 5.86719 5.30957 6.05176 4.8584C6.36621 3.92188 7.00195 3.55273 7.84961 3.55273C8.85449 3.55273 9.64062 4.14746 9.64062 5.0498C9.64062 5.9043 9.17578 6.3418 8.13672 6.99805C7.15918 7.63379 6.49609 8.33105 6.49609 9.39062V9.64355C6.49609 10.293 6.93359 10.7373 7.61035 10.7373ZM7.6377 14.6611C8.39648 14.6611 9.01855 14.0732 9.01855 13.3281C9.01855 12.5898 8.39648 12.002 7.6377 12.002C6.87207 12.002 6.25684 12.5898 6.25684 13.3281C6.25684 14.0732 6.87207 14.6611 7.6377 14.6611Z"/></svg>